<svg id="eTrRYW7pBMv1" xmlns="http://www.w3.org/2000/svg" xmlns:xlink="http://www.w3.org/1999/xlink" viewBox="0 0 4000 2000" shape-rendering="geometricPrecision" text-rendering="geometricPrecision" width="4000" height="2000"><g transform="matrix(1.249999 0 0 1 0.002836 12.635083)" clip-rule="evenodd"><path d="M0,114.642L0,1200h3200v-1093.655c-12.86,0-23.46-9.926-36.83-11.04-93.61-7.801-207.83,1.999-299.22,15.055-22.38,3.197-45.44-5.602-67.75-1.882-84.79,14.132-167.6,36.24-254.06,47.047-76.5,9.563-159.97,7.531-235.23,26.347-49.23,12.305-86.07,35.491-139.27,41.401-30.49,3.388-66.93-5.482-95.97-11.291-25.86-5.172-53.82,5.457-77.16,11.291-32.13,8.034-70.36-8.133-101.62-1.882-55.9,11.181-128.17.693-182.54,18.819-44.25,14.748-74.91,54.668-135.5,39.52-64.39-16.098-127.72-62.061-195.72-73.394-157.24-26.207-327.8.767-472.354-71.512-17.513-8.756-45.246-7.535-63.984-9.409-214.333-21.433-431.15-43.965-647.371-16.937C146.459,114.598,32.023,91.298,0,114.642Z" clip-rule="evenodd" fill="#c5dffa" fill-rule="evenodd" stroke-linejoin="round" stroke-miterlimit="2"/></g><g transform="matrix(1.249999 0 0 1 0.002836 2.830404)" clip-rule="evenodd"><path d="M36.601,156.021c57.948,28.369,119.34-14.605,157.185-5.144c52.885,13.222,109.04,15.209,162.936,23.501c54.41,8.37,106.378,46.53,159.803,61.101c86.6,23.618,200.412,48.873,289.839,54.834c66.408,4.428,134.271-4.457,200.536,1.567c26.81,2.437,57.56,7.404,84.6,4.7c58.68-5.867,118.16-17.708,177.04-25.067c107.19-13.399,223.68-77.988,333.71-64.235c62.52,7.816,122.86,29.862,188,39.168c67.35,9.621,140-6.635,208.37,3.133c21.15,3.021,65.27,31.6,86.17,31.334c11.57-.147,217.08,15.2,271.04,23.501c82.76,12.733,160.98,47.617,244.4,59.534c127.76,18.252,255.45,24.591,383.84,34.467c76.53,5.887,157.84,22.403,215.93,16.015v785.57h-3200L0,143.076l36.601,12.945Z" clip-rule="evenodd" fill="#6692c1" fill-rule="evenodd" stroke-linejoin="round" stroke-miterlimit="2"/></g><g transform="matrix(1.249999 0 0 1 0.002836 2.830408)" clip-rule="evenodd"><path d="M3200,86.871v1113.129h-3200v-994.988c72.5-57.406,263.763,59.551,348.845,80.821c38.424,9.606,81.982,22.26,121.864,26.248c82.726,8.273,167.227-9.125,249.353,0c28.33,3.148,48.98,27.224,76.869,31.872c25.238,4.207,69.653-15.793,89.992-5.624c60.51,30.255,141.867,79.89,213.727,91.867c30.49,5.082,121.19,18.549,142.49,20.623c90.84,8.846,184.78,31.295,258.02,16.646c67.31-13.46,267.47.423,370.58-21.576c49.35-10.531,135.17,7.642,173.64-16.614c87.36-55.082,180.42-46.948,281.42-72.198c28.03-7.009,61.66-27.428,91.86-37.497c34.88-11.626,77.52-15.626,112.49-20.623c51.82-7.402,79.89-46.002,127.49-61.869c62.87-20.956,135.54-6.23,200.61-22.498c92.86-23.216,172.5-78.277,264.35-101.241c32.58-8.144,37.54-26.478,76.4-26.478Z" clip-rule="evenodd" fill="#3474b1" fill-rule="evenodd" stroke-linejoin="round" stroke-miterlimit="2"/></g><g transform="matrix(1.249999 0 0 1 0.003145 2.830405)" clip-rule="evenodd"><path d="M3200,395.027v804.973h-3200v-645.938c-.435.59,54.309-4.093,57.8-4.093c29.373,0,57.912-4.828,86.907-4.828c83.95,0,164.173-4.141,247.848-16.094c78.481-11.212,164.457,9.274,243.019-6.438c67.29-13.458,139.194-18.439,207.613-24.141c40.69-3.391,80.625-15.669,120.705-19.313c49.978-4.543,99.378.761,149.678-4.828c35.77-3.975,54.34-21.915,89.14-30.615c49.13-12.284,55.79-38.636,104.17-54.761c36.74-12.246,129.54,6.046,167.44,1.307c20.75-2.593,36.16-34.419,125.68-54.125c58.72-12.926,128.88,63.938,203.7,92.847c118.95,45.961,164.53-13.89,302.52-36.149c60.37-9.739,134.99,6.634,194.81-5.961c56.82-11.962,107.41-19.396,162.82-33.248c20.82-5.205,45.57-.141,67.6-1.609c82.83-5.523,173.4-13.83,255.89-24.141c104.54-13.068,224.4,14.128,325.1,37.016c36.64,8.327,59.64,30.139,87.56,30.139Z" clip-rule="evenodd" fill="#0e5396" fill-rule="evenodd" stroke-linejoin="round" stroke-miterlimit="2"/></g><g transform="matrix(1.230132 0 0 1-.000221 0.000061)" clip-rule="evenodd"><path d="M3200,444.73v1555.27h-3200L0,425.27c28.673,14.674,123.602-3.873,165.607,3.127c103.957,17.327,214.99,15.634,318.211,38.572c44.503,9.889,95.205-1.811,140.784,5.785c65.724,10.954,94.852,16.432,163.312,24.039c22.851,2.539,67.369-.579,89.994,3.946c10.759,2.152,31.551,17.731,35.977,22.158c10.649,10.649,46.955,4.716,59.785,5.785c34.08,2.84,122.09,44.553,162,57.857c63.48,21.16,135.48,17.766,200.57,32.785c102.35,23.62,212.08,30.526,318.21,48.214c49.4,8.234,102.77-3.226,152.36,3.857c23.52,3.36,47.81,8.969,73.28,5.786c114.04-14.255,236.31-35.055,345.21-71.357c103.63-34.542,199.98-93.995,308.57-115.713c141.19-28.238,292.35,6.173,435.85-5.785c73.21-6.101,158.66-39.596,230.28-39.596Z" transform="matrix(1.016151 0 0 1 0.00018-.000031)" clip-rule="evenodd" fill="#002245" fill-rule="evenodd" stroke-linejoin="round" stroke-miterlimit="2"/></g></svg>
